<svg
  viewBox="0 0 3.2 3.2"
  xmlns="http://www.w3.org/2000/svg"
  fill="currentColor"
>
  <path
    d="M1.582 2.318s0 -1.036 0.034 -1.036c0.027 0 0.061 1.337 0.061 1.337 -0.048 -0.006 -0.096 -0.22 -0.096 -0.3m0.667 -1.024c-0.092 -0.402 -0.293 -0.747 -0.571 -1.013l-0.001 -0.001a1 1 0 0 1 -0.09 -0.173l-0.002 -0.007 0 0.007c0 0.056 -0.025 0.107 -0.065 0.141l0 0c-0.357 0.303 -0.585 0.751 -0.592 1.251v0.001l0 0.021a1.51 1.51 0 0 0 0.607 1.212l0.004 0.003 0.009 0.006q0.024 0.178 0.041 0.358h0.06c0.017 -0.149 0.039 -0.28 0.068 -0.408l-0.005 0.024c0.04 -0.028 0.074 -0.056 0.106 -0.087l0 0a1.414 1.414 0 0 0 0.455 -1.04l0 -0.018v0.001a1.63 1.63 0 0 0 -0.026 -0.287l0.002 0.01z"
  />
</svg>
