<svg xmlns="http://www.w3.org/2000/svg" viewBox="0 0 24 24">
  <g fill="none" stroke="currentColor">
    <path d="M15.08 2.752H8.92a1.97 1.97 0 0 0-2.062 1.85v6.077a5.49 5.49 0 0 0 3.024 4.8 4.52 4.52 0 0 0 4.236 0 5.49 5.49 0 0 0 3.024-4.8V4.602a1.97 1.97 0 0 0-2.062-1.85Z"/>
    <path d="M17.142 4.602h2.054a1.97 1.97 0 0 1 2.053 1.85 6.8 6.8 0 0 1-.87 3.311 7.74 7.74 0 0 1-2.423 2.608l-.814.555-.795.481M6.858 4.602H4.804a1.97 1.97 0 0 0-2.053 1.85c.003 1.16.302 2.3.87 3.311a7.74 7.74 0 0 0 2.423 2.608l.814.555.795.481m2.294 5.068v-2.969m4.106 2.969v-2.969M8.81 18.475h6.38a1.95 1.95 0 0 1 1.952 1.952v.333a.49.49 0 0 1-.49.49H7.348a.49.49 0 0 1-.49-.49v-.333a1.95 1.95 0 0 1 1.951-1.952ZM12 6.504v5m2.293-2.895L12.326 6.64a.46.46 0 0 0-.652 0L9.707 8.61"/>
  </g>
</svg>
